<svg width="327" height="50" viewBox="0 0 327 50" fill="none" xmlns="http://www.w3.org/2000/svg">
<path d="M21.2422 43.9224L44.0599 43.9224L44.107 21.0183L50.1422 21.0183L50.0951 49.9224L21.2422 49.9224L21.2422 43.9224Z" fill="white"/>
<path d="M32.627 19.3135C32.627 11.9606 26.6663 6 19.3135 6C11.9606 6 6 11.9606 6 19.3135C6 26.6663 11.9606 32.627 19.3135 32.627C26.6663 32.627 32.627 26.6663 32.627 19.3135ZM38.627 19.3135C38.627 29.98 29.98 38.627 19.3135 38.627C8.64694 38.627 0 29.98 0 19.3135C0 8.64694 8.64694 0 19.3135 0C29.98 0 38.627 8.64694 38.627 19.3135Z" fill="#64C4F1"/>
<path d="M120.673 29.258V23.4966H126.023V29.258H130.549V33.9082H126.023V42.2622C126.023 43.3322 126.242 44.0867 126.681 44.5256C127.148 44.9646 127.724 45.1978 128.41 45.2252C129.123 45.2527 129.836 45.2115 130.549 45.1018V49.6286C129.287 49.9029 128.053 49.9852 126.846 49.8755C125.666 49.7657 124.61 49.4502 123.677 48.929C122.744 48.3803 122.003 47.5572 121.455 46.4598C120.933 45.3624 120.673 43.9632 120.673 42.2622V33.9082H117.751V29.258H120.673Z" fill="white"/>
<path d="M81.5475 21.0278C84.6202 21.0278 87.2815 21.6314 89.5311 22.8386C91.8083 24.0183 93.5778 25.6918 94.8398 27.8592C96.1019 30.0266 96.7329 32.578 96.7329 35.5136C96.7329 38.4217 96.1019 40.9458 94.8398 43.0857C93.5778 45.2256 91.8083 46.8855 89.5311 48.0652C87.2815 49.2449 84.6202 49.8347 81.5475 49.8347H70.8066V21.0278H81.5475ZM81.3829 45.1845C84.4831 45.1845 86.8699 44.334 88.5435 42.633C90.217 40.9046 91.0538 38.5315 91.0538 35.5136C91.0538 32.4683 90.217 30.0677 88.5435 28.3119C86.8699 26.556 84.4831 25.6781 81.3829 25.6781H76.3623V45.1845H81.3829Z" fill="white"/>
<path d="M314.214 42.8191C314.379 43.505 314.653 44.0263 315.038 44.3829C315.449 44.7396 315.902 45.0002 316.396 45.1648C316.917 45.302 317.438 45.3706 317.959 45.3706C318.92 45.3706 319.674 45.1923 320.223 44.8356C320.772 44.4515 321.046 43.9714 321.046 43.3953C321.046 42.9014 320.854 42.5174 320.47 42.243C320.086 41.9412 319.592 41.7217 318.988 41.5846C318.385 41.4199 317.767 41.2553 317.136 41.0907C316.396 40.8987 315.6 40.6929 314.749 40.4734C313.926 40.2265 313.145 39.8836 312.404 39.4446C311.663 39.0057 311.046 38.4432 310.552 37.7574C310.058 37.044 309.811 36.1524 309.811 35.0824C309.811 33.8204 310.154 32.7093 310.84 31.7491C311.553 30.7888 312.527 30.0344 313.762 29.4857C315.024 28.9369 316.478 28.6626 318.124 28.6626C320.072 28.6626 321.718 29.0741 323.062 29.8972C324.407 30.7202 325.381 31.8999 325.984 33.4363L321.334 34.7532C321.197 34.3691 320.964 34.0536 320.634 33.8067C320.305 33.5598 319.907 33.3814 319.441 33.2717C319.002 33.162 318.549 33.1071 318.083 33.1071C317.287 33.1071 316.629 33.2717 316.108 33.6009C315.586 33.9027 315.326 34.328 315.326 34.8767C315.326 35.2059 315.422 35.4802 315.614 35.6997C315.806 35.8918 316.066 36.0564 316.396 36.1935C316.752 36.3307 317.15 36.4542 317.589 36.5639C318.055 36.6737 318.563 36.7971 319.112 36.9343C319.962 37.1538 320.813 37.4144 321.663 37.7162C322.541 37.9906 323.337 38.3472 324.05 38.7862C324.791 39.2251 325.381 39.815 325.82 40.5557C326.259 41.2965 326.505 42.2293 326.56 43.3541C326.56 44.5613 326.217 45.6587 325.531 46.6463C324.846 47.6066 323.858 48.3748 322.569 48.9509C321.279 49.527 319.715 49.8151 317.877 49.8151C315.737 49.8151 313.913 49.3624 312.404 48.4571C310.922 47.5517 309.948 46.1388 309.482 44.2183L314.214 42.8191Z" fill="white"/>
<path d="M280.509 19.897H285.776V49.5269H280.509V19.897Z" fill="white"/>
<path d="M267.231 28.9508V23.1895H272.581V28.9508H277.108V33.6011H272.581V41.9551C272.581 43.0251 272.8 43.7795 273.239 44.2185C273.706 44.6575 274.282 44.8907 274.968 44.9181C275.681 44.9455 276.394 44.9044 277.108 44.7946V49.3214C275.846 49.5958 274.611 49.6781 273.404 49.5684C272.224 49.4586 271.168 49.1431 270.235 48.6218C269.302 48.0731 268.562 47.2501 268.013 46.1527C267.492 45.0553 267.231 43.6561 267.231 41.9551V33.6011H264.309V28.9508H267.231Z" fill="white"/>
<path d="M251.684 25.371H250.202L241.725 49.5276H236.004L246.334 20.7207H255.511L265.84 49.5276H260.12L251.684 25.371ZM242.26 38.2518H259.05V42.902H242.26V38.2518Z" fill="white"/>
<path d="M290.554 30.6714C291.988 28.8446 294.449 27.9312 297.938 27.9312C300.208 27.9312 302.226 28.3815 303.989 29.2822C305.752 30.183 306.634 31.8829 306.634 34.3821V43.8969C306.634 44.5566 306.647 45.3558 306.672 46.2946C306.71 47.005 306.818 47.4871 306.996 47.7408C307.173 47.9946 307.44 48.2039 307.795 48.3688V49.1681H301.896C301.731 48.7494 301.617 48.3561 301.553 47.9882C301.49 47.6203 301.439 47.2017 301.401 46.7323C300.652 47.5442 299.79 48.2356 298.813 48.8065C297.646 49.4789 296.326 49.8151 294.855 49.8151C292.977 49.8151 291.423 49.2822 290.193 48.2166C288.975 47.1382 288.366 45.6159 288.366 43.6495C288.366 41.0996 289.349 39.2537 291.315 38.1119C292.394 37.4903 293.979 37.0463 296.073 36.7799L297.919 36.5515C298.921 36.4246 299.638 36.2661 300.069 36.0758C300.843 35.7459 301.23 35.2321 301.23 34.5344C301.23 33.6844 300.932 33.1008 300.335 32.7837C299.752 32.4538 298.889 32.2889 297.747 32.2889C296.466 32.2889 295.559 32.6061 295.026 33.2404C294.645 33.7098 294.392 34.3441 294.265 35.1433H289.032C289.146 33.3292 289.653 31.8385 290.554 30.6714ZM294.588 45.248C295.096 45.6666 295.717 45.876 296.453 45.876C297.62 45.876 298.692 45.5334 299.669 44.8484C300.659 44.1633 301.173 42.9137 301.211 41.0996V39.0824C300.868 39.2981 300.519 39.4757 300.164 39.6153C299.821 39.7421 299.346 39.8626 298.737 39.9768L297.519 40.2052C296.377 40.4082 295.559 40.6555 295.064 40.9473C294.227 41.4421 293.808 42.2096 293.808 43.2499C293.808 44.176 294.068 44.842 294.588 45.248Z" fill="white"/>
<path d="M99.9667 30.6714C101.4 28.8446 103.861 27.9312 107.35 27.9312C109.621 27.9312 111.638 28.3815 113.402 29.2822C115.165 30.183 116.047 31.8829 116.047 34.3821V43.8969C116.047 44.5566 116.059 45.3558 116.085 46.2946C116.123 47.005 116.231 47.4871 116.408 47.7408C116.586 47.9946 116.852 48.2039 117.207 48.3688V49.1681H111.308C111.143 48.7494 111.029 48.3561 110.966 47.9882C110.902 47.6203 110.852 47.2017 110.814 46.7323C110.065 47.5442 109.202 48.2356 108.226 48.8065C107.058 49.4789 105.739 49.8151 104.267 49.8151C102.39 49.8151 100.836 49.2822 99.6052 48.2166C98.3873 47.1382 97.7783 45.6159 97.7783 43.6495C97.7783 41.0996 98.7615 39.2537 100.728 38.1119C101.806 37.4903 103.392 37.0463 105.485 36.7799L107.331 36.5515C108.333 36.4246 109.05 36.2661 109.481 36.0758C110.255 35.7459 110.642 35.2321 110.642 34.5344C110.642 33.6844 110.344 33.1008 109.748 32.7837C109.164 32.4538 108.302 32.2889 107.16 32.2889C105.879 32.2889 104.971 32.6061 104.439 33.2404C104.058 33.7098 103.804 34.3441 103.677 35.1433H98.4444C98.5585 33.3292 99.066 31.8385 99.9667 30.6714ZM104.001 45.248C104.508 45.6666 105.13 45.876 105.866 45.876C107.033 45.876 108.105 45.5334 109.082 44.8484C110.071 44.1633 110.585 42.9137 110.623 41.0996V39.0824C110.281 39.2981 109.932 39.4757 109.577 39.6153C109.234 39.7421 108.758 39.8626 108.149 39.9768L106.932 40.2052C105.79 40.4082 104.971 40.6555 104.477 40.9473C103.639 41.4421 103.221 42.2096 103.221 43.2499C103.221 44.176 103.481 44.842 104.001 45.248Z" fill="white"/>
<path d="M134.456 30.6714C135.89 28.8446 138.351 27.9312 141.839 27.9312C144.11 27.9312 146.127 28.3815 147.891 29.2822C149.654 30.183 150.536 31.8829 150.536 34.3821V43.8969C150.536 44.5566 150.549 45.3558 150.574 46.2946C150.612 47.005 150.72 47.4871 150.897 47.7408C151.075 47.9946 151.341 48.2039 151.697 48.3688V49.1681H145.798C145.633 48.7494 145.518 48.3561 145.455 47.9882C145.392 47.6203 145.341 47.2017 145.303 46.7323C144.554 47.5442 143.692 48.2356 142.715 48.8065C141.548 49.4789 140.228 49.8151 138.757 49.8151C136.879 49.8151 135.325 49.2822 134.094 48.2166C132.877 47.1382 132.268 45.6159 132.268 43.6495C132.268 41.0996 133.251 39.2537 135.217 38.1119C136.295 37.4903 137.881 37.0463 139.975 36.7799L141.82 36.5515C142.823 36.4246 143.539 36.2661 143.971 36.0758C144.745 35.7459 145.132 35.2321 145.132 34.5344C145.132 33.6844 144.833 33.1008 144.237 32.7837C143.654 32.4538 142.791 32.2889 141.649 32.2889C140.368 32.2889 139.461 32.6061 138.928 33.2404C138.547 33.7098 138.294 34.3441 138.167 35.1433H132.934C133.048 33.3292 133.555 31.8385 134.456 30.6714ZM138.49 45.248C138.998 45.6666 139.619 45.876 140.355 45.876C141.522 45.876 142.594 45.5334 143.571 44.8484C144.561 44.1633 145.074 42.9137 145.112 41.0996V39.0824C144.77 39.2981 144.421 39.4757 144.066 39.6153C143.723 39.7421 143.248 39.8626 142.639 39.9768L141.421 40.2052C140.279 40.4082 139.461 40.6555 138.966 40.9473C138.129 41.4421 137.71 42.2096 137.71 43.2499C137.71 44.176 137.97 44.842 138.49 45.248Z" fill="white"/>
<path d="M205.956 49.2399H200.565L194.474 28.6636H199.906L203.322 42.5732L206.943 28.6636H212.211L215.709 42.5732L219.083 28.6636H224.474L218.384 49.2399H212.869L209.454 36.318L205.956 49.2399Z" fill="white"/>
<path d="M183.817 49.528C181.814 49.528 180.031 49.1027 178.467 48.2523C176.903 47.3743 175.669 46.1535 174.763 44.5897C173.885 42.9984 173.446 41.1328 173.446 38.9929C173.446 36.8255 173.899 34.9462 174.804 33.355C175.737 31.7637 176.999 30.5429 178.59 29.6924C180.182 28.8145 181.965 28.3755 183.94 28.3755C185.916 28.3755 187.699 28.8145 189.29 29.6924C190.881 30.5429 192.143 31.7637 193.076 33.355C194.009 34.9188 194.475 36.7706 194.475 38.9106C194.475 41.078 193.995 42.9573 193.035 44.5485C192.102 46.1398 190.826 47.3743 189.208 48.2523C187.617 49.1027 185.82 49.528 183.817 49.528ZM183.776 44.7954C184.626 44.7954 185.435 44.5897 186.204 44.1781C186.972 43.7392 187.603 43.0945 188.097 42.244C188.59 41.366 188.837 40.2549 188.837 38.9106C188.837 37.6211 188.604 36.5512 188.138 35.7007C187.671 34.8228 187.054 34.178 186.286 33.7665C185.545 33.3275 184.736 33.1081 183.858 33.1081C183.007 33.1081 182.212 33.3275 181.471 33.7665C180.758 34.178 180.182 34.8228 179.743 35.7007C179.331 36.5512 179.125 37.6486 179.125 38.9929C179.125 40.2823 179.331 41.366 179.743 42.244C180.154 43.0945 180.717 43.7392 181.43 44.1781C182.143 44.5897 182.925 44.7954 183.776 44.7954Z" fill="white"/>
<path d="M165.793 19.6099H171.061V49.2398H165.793V19.6099Z" fill="white"/>
<path d="M154.842 26.8118C154.842 25.0285 155.158 23.5745 155.789 22.4496C156.447 21.3248 157.407 20.5154 158.669 20.0216C159.959 19.5278 161.564 19.3906 163.484 19.6101V24.2603C162.277 24.0957 161.413 24.2603 160.892 24.7542C160.398 25.248 160.151 26.0162 160.151 27.0587V28.6637H163.731V33.3139H160.151V49.2401H154.842V33.3139H152.414V28.6637H154.842V26.8118Z" fill="white"/>
</svg>
