<svg width="223" height="38" viewBox="0 0 223 38" fill="none" xmlns="http://www.w3.org/2000/svg">
<path d="M81.4967 14.9385V11.2285H84.9417V14.9385H87.8567V17.933H84.9417V23.3125C84.9417 24.0015 85.0831 24.4873 85.3657 24.77C85.6661 25.0527 86.0371 25.2028 86.4787 25.2205C86.9381 25.2382 87.3974 25.2117 87.8567 25.141V28.056C87.0441 28.2327 86.2491 28.2857 85.4717 28.215C84.7121 28.1444 84.0319 27.9412 83.4312 27.6055C82.8306 27.2522 82.3536 26.7222 82.0002 26.0155C81.6646 25.3088 81.4967 24.4079 81.4967 23.3125V17.933H79.6152V14.9385H81.4967Z" fill="white"/>
<path d="M56.3022 9.63867C58.2809 9.63867 59.9946 10.0273 61.4432 10.8047C62.9096 11.5643 64.0491 12.642 64.8617 14.0377C65.6744 15.4333 66.0807 17.0763 66.0807 18.9667C66.0807 20.8393 65.6744 22.4647 64.8617 23.8427C64.0491 25.2207 62.9096 26.2895 61.4432 27.0492C59.9946 27.8088 58.2809 28.1887 56.3022 28.1887H49.3857V9.63867H56.3022ZM56.1962 25.1942C58.1926 25.1942 59.7296 24.6465 60.8072 23.5512C61.8849 22.4382 62.4237 20.91 62.4237 18.9667C62.4237 17.0057 61.8849 15.4598 60.8072 14.3292C59.7296 13.1985 58.1926 12.6332 56.1962 12.6332H52.9632V25.1942H56.1962Z" fill="white"/>
<path opacity="0.2" d="M213.913 8.8457H216.891V9.75847H215.99V12.8391H214.826V9.75847H213.913V8.8457ZM217.53 8.8457H219.07L220.302 12.1431L219.766 12.1545L221.124 8.8457H222.562V12.8391H221.489V9.5531L221.797 9.51887L220.417 12.8391H219.618L218.294 9.51887L218.568 9.5531V12.8391H217.53V8.8457Z" fill="white"/>
<path d="M204.839 23.6712C204.945 24.1128 205.122 24.4485 205.369 24.6782C205.634 24.9078 205.926 25.0757 206.244 25.1817C206.58 25.27 206.915 25.3142 207.251 25.3142C207.869 25.3142 208.355 25.1993 208.708 24.9697C209.062 24.7223 209.238 24.4132 209.238 24.0422C209.238 23.7242 209.115 23.4768 208.867 23.3002C208.62 23.1058 208.302 22.9645 207.913 22.8762C207.525 22.7702 207.127 22.6642 206.721 22.5582C206.244 22.4345 205.732 22.302 205.184 22.1607C204.654 22.0017 204.15 21.7808 203.673 21.4982C203.196 21.2155 202.799 20.8533 202.481 20.4117C202.163 19.9523 202.004 19.3782 202.004 18.6892C202.004 17.8765 202.225 17.161 202.666 16.5427C203.126 15.9243 203.753 15.4385 204.548 15.0852C205.361 14.7318 206.297 14.5552 207.357 14.5552C208.611 14.5552 209.671 14.8202 210.537 15.3502C211.403 15.8802 212.03 16.6398 212.418 17.6292L209.424 18.4772C209.336 18.2298 209.185 18.0267 208.973 17.8677C208.761 17.7087 208.505 17.5938 208.205 17.5232C207.922 17.4525 207.631 17.4172 207.33 17.4172C206.818 17.4172 206.394 17.5232 206.058 17.7352C205.723 17.9295 205.555 18.2033 205.555 18.5567C205.555 18.7687 205.617 18.9453 205.74 19.0867C205.864 19.2103 206.032 19.3163 206.244 19.4047C206.474 19.493 206.73 19.5725 207.012 19.6432C207.313 19.7138 207.64 19.7933 207.993 19.8817C208.541 20.023 209.088 20.1908 209.636 20.3852C210.201 20.5618 210.714 20.7915 211.173 21.0742C211.65 21.3568 212.03 21.7367 212.312 22.2137C212.595 22.6907 212.754 23.2913 212.789 24.0157C212.789 24.793 212.569 25.4997 212.127 26.1357C211.685 26.754 211.049 27.2487 210.219 27.6197C209.389 27.9907 208.382 28.1762 207.198 28.1762C205.82 28.1762 204.645 27.8847 203.673 27.3017C202.719 26.7187 202.092 25.8088 201.792 24.5722L204.839 23.6712Z" fill="white"/>
<path d="M183.135 8.91064H186.527V27.9906H183.135V8.91064Z" fill="white"/>
<path d="M174.585 14.7408V11.0308H178.03V14.7408H180.945V17.7353H178.03V23.1148C178.03 23.8038 178.171 24.2896 178.454 24.5723C178.754 24.8549 179.125 25.0051 179.567 25.0228C180.026 25.0404 180.485 25.0139 180.945 24.9433V27.8583C180.132 28.0349 179.337 28.0879 178.56 28.0173C177.8 27.9466 177.12 27.7434 176.519 27.4078C175.918 27.0544 175.441 26.5244 175.088 25.8178C174.752 25.1111 174.585 24.2101 174.585 23.1148V17.7353H172.703V14.7408H174.585Z" fill="white"/>
<path d="M164.573 12.4354H163.619L158.16 27.9909H154.477L161.128 9.44092H167.038L173.689 27.9909H170.006L164.573 12.4354ZM158.505 20.7299H169.317V23.7244H158.505V20.7299Z" fill="white"/>
<path d="M189.604 15.8485C190.527 14.6722 192.111 14.084 194.358 14.084C195.82 14.084 197.119 14.374 198.255 14.954C199.39 15.534 199.958 16.6287 199.958 18.2381V24.365C199.958 24.7898 199.966 25.3045 199.983 25.909C200.007 26.3665 200.077 26.6769 200.191 26.8403C200.305 27.0037 200.477 27.1385 200.706 27.2447V27.7593H196.907C196.801 27.4897 196.727 27.2365 196.686 26.9996C196.645 26.7627 196.613 26.4931 196.588 26.1908C196.106 26.7137 195.551 27.1589 194.922 27.5265C194.17 27.9595 193.321 28.176 192.373 28.176C191.164 28.176 190.163 27.8329 189.371 27.1466C188.586 26.4523 188.194 25.4719 188.194 24.2057C188.194 22.5637 188.827 21.3751 190.094 20.6398C190.788 20.2395 191.809 19.9536 193.157 19.782L194.346 19.635C194.991 19.5533 195.453 19.4512 195.73 19.3287C196.229 19.1163 196.478 18.7854 196.478 18.3361C196.478 17.7887 196.286 17.413 195.902 17.2087C195.526 16.9963 194.971 16.8901 194.236 16.8901C193.41 16.8901 192.826 17.0944 192.483 17.5028C192.238 17.8051 192.075 18.2135 191.993 18.7282H188.623C188.697 17.56 189.024 16.6001 189.604 15.8485ZM192.201 25.235C192.528 25.5046 192.928 25.6394 193.402 25.6394C194.154 25.6394 194.844 25.4188 195.473 24.9777C196.11 24.5366 196.441 23.7319 196.466 22.5637V21.2648C196.245 21.4036 196.02 21.518 195.792 21.6079C195.571 21.6896 195.265 21.7672 194.873 21.8407L194.088 21.9877C193.353 22.1185 192.826 22.2778 192.508 22.4657C191.969 22.7843 191.699 23.2785 191.699 23.9484C191.699 24.5447 191.866 24.9736 192.201 25.235Z" fill="white"/>
<path d="M68.1631 15.8485C69.0862 14.6722 70.6711 14.084 72.9176 14.084C74.3799 14.084 75.6788 14.374 76.8144 14.954C77.9499 15.534 78.5176 16.6287 78.5176 18.2381V24.365C78.5176 24.7898 78.5258 25.3045 78.5422 25.909C78.5667 26.3665 78.6361 26.6769 78.7505 26.8403C78.8648 27.0037 79.0364 27.1385 79.2651 27.2447V27.7593H75.4664C75.3602 27.4897 75.2867 27.2365 75.2459 26.9996C75.205 26.7627 75.1723 26.4931 75.1478 26.1908C74.6658 26.7137 74.1103 27.1589 73.4813 27.5265C72.7297 27.9595 71.8801 28.176 70.9325 28.176C69.7234 28.176 68.7227 27.8329 67.9303 27.1466C67.146 26.4523 66.7539 25.4719 66.7539 24.2057C66.7539 22.5637 67.387 21.3751 68.6533 20.6398C69.3476 20.2395 70.3688 19.9536 71.7167 19.782L72.9054 19.635C73.5507 19.5533 74.0123 19.4512 74.2901 19.3287C74.7884 19.1163 75.0375 18.7854 75.0375 18.3361C75.0375 17.7887 74.8456 17.413 74.4616 17.2087C74.0858 16.9963 73.5303 16.8901 72.7951 16.8901C71.97 16.8901 71.3859 17.0944 71.0428 17.5028C70.7977 17.8051 70.6343 18.2135 70.5526 18.7282H67.1828C67.2563 17.56 67.5831 16.6001 68.1631 15.8485ZM70.7609 25.235C71.0877 25.5046 71.488 25.6394 71.9618 25.6394C72.7134 25.6394 73.4037 25.4188 74.0327 24.9777C74.6699 24.5366 75.0008 23.7319 75.0253 22.5637V21.2648C74.8047 21.4036 74.5801 21.518 74.3513 21.6079C74.1308 21.6896 73.8244 21.7672 73.4323 21.8407L72.648 21.9877C71.9128 22.1185 71.3859 22.2778 71.0673 22.4657C70.5281 22.7843 70.2585 23.2785 70.2585 23.9484C70.2585 24.5447 70.426 24.9736 70.7609 25.235Z" fill="white"/>
<path d="M90.3721 15.8485C91.2952 14.6722 92.8801 14.084 95.1266 14.084C96.5889 14.084 97.8878 14.374 99.0233 14.954C100.159 15.534 100.727 16.6287 100.727 18.2381V24.365C100.727 24.7898 100.735 25.3045 100.751 25.909C100.776 26.3665 100.845 26.6769 100.959 26.8403C101.074 27.0037 101.245 27.1385 101.474 27.2447V27.7593H97.6754C97.5692 27.4897 97.4957 27.2365 97.4548 26.9996C97.414 26.7627 97.3813 26.4931 97.3568 26.1908C96.8748 26.7137 96.3193 27.1589 95.6903 27.5265C94.9387 27.9595 94.0891 28.176 93.1415 28.176C91.9324 28.176 90.9317 27.8329 90.1393 27.1466C89.355 26.4523 88.9629 25.4719 88.9629 24.2057C88.9629 22.5637 89.596 21.3751 90.8622 20.6398C91.5566 20.2395 92.5778 19.9536 93.9257 19.782L95.1143 19.635C95.7597 19.5533 96.2213 19.4512 96.499 19.3287C96.9974 19.1163 97.2465 18.7854 97.2465 18.3361C97.2465 17.7887 97.0545 17.413 96.6706 17.2087C96.2948 16.9963 95.7393 16.8901 95.0041 16.8901C94.179 16.8901 93.5949 17.0944 93.2518 17.5028C93.0067 17.8051 92.8433 18.2135 92.7616 18.7282H89.3918C89.4653 17.56 89.7921 16.6001 90.3721 15.8485ZM92.9699 25.235C93.2967 25.5046 93.697 25.6394 94.1708 25.6394C94.9224 25.6394 95.6127 25.4188 96.2417 24.9777C96.8789 24.5366 97.2098 23.7319 97.2343 22.5637V21.2648C97.0137 21.4036 96.789 21.518 96.5603 21.6079C96.3397 21.6896 96.0334 21.7672 95.6413 21.8407L94.857 21.9877C94.1218 22.1185 93.5949 22.2778 93.2763 22.4657C92.7371 22.7843 92.4675 23.2785 92.4675 23.9484C92.4675 24.5447 92.635 24.9736 92.9699 25.235Z" fill="white"/>
<path d="M53.3643 4H4V33.9844H53.3643V37.9844H0V0H53.3643V4ZM53.3643 27.9922H49.3643V9.99219H53.3643V27.9922Z" fill="white"/>
<path d="M136.414 27.8057H132.943L129.021 14.5557H132.519L134.718 23.5127L137.05 14.5557H140.442L142.695 23.5127L144.868 14.5557H148.339L144.417 27.8057H140.866L138.667 19.4847L136.414 27.8057Z" fill="white"/>
<path d="M122.157 27.9911C120.868 27.9911 119.719 27.7173 118.712 27.1696C117.705 26.6043 116.91 25.8181 116.327 24.8111C115.762 23.7865 115.479 22.5851 115.479 21.2071C115.479 19.8115 115.771 18.6013 116.354 17.5766C116.955 16.552 117.767 15.7658 118.792 15.2181C119.817 14.6528 120.965 14.3701 122.237 14.3701C123.509 14.3701 124.657 14.6528 125.682 15.2181C126.707 15.7658 127.519 16.552 128.12 17.5766C128.721 18.5836 129.021 19.7761 129.021 21.1541C129.021 22.5498 128.712 23.76 128.093 24.7846C127.493 25.8093 126.671 26.6043 125.629 27.1696C124.604 27.7173 123.447 27.9911 122.157 27.9911ZM122.131 24.9436C122.679 24.9436 123.2 24.8111 123.694 24.5461C124.189 24.2635 124.595 23.8483 124.913 23.3006C125.231 22.7353 125.39 22.0198 125.39 21.1541C125.39 20.3238 125.24 19.6348 124.94 19.0871C124.64 18.5218 124.242 18.1066 123.747 17.8416C123.27 17.559 122.749 17.4176 122.184 17.4176C121.636 17.4176 121.124 17.559 120.647 17.8416C120.188 18.1066 119.817 18.5218 119.534 19.0871C119.269 19.6348 119.136 20.3415 119.136 21.2071C119.136 22.0375 119.269 22.7353 119.534 23.3006C119.799 23.8483 120.161 24.2635 120.62 24.5461C121.08 24.8111 121.583 24.9436 122.131 24.9436Z" fill="white"/>
<path d="M110.552 8.72559H113.944V27.8056H110.552V8.72559Z" fill="white"/>
<path d="M103.5 13.3634C103.5 12.215 103.703 11.2787 104.11 10.5544C104.534 9.83004 105.152 9.30888 105.965 8.99088C106.795 8.67288 107.828 8.58454 109.065 8.72588V11.7204C108.288 11.6144 107.731 11.7204 107.396 12.0384C107.078 12.3564 106.919 12.851 106.919 13.5224V14.5559H109.224V17.5504H106.919V27.8059H103.5V17.5504H101.937V14.5559H103.5V13.3634Z" fill="white"/>
</svg>
