<svg width="164" height="20" viewBox="0 0 164 20" fill="none" xmlns="http://www.w3.org/2000/svg">
<path d="M32.111 6.27787V2.56787H35.556V6.27787H38.471V9.27237H35.556V14.6519C35.556 15.3409 35.6973 15.8267 35.98 16.1094C36.2803 16.392 36.6513 16.5422 37.093 16.5599C37.5523 16.5775 38.0117 16.551 38.471 16.4804V19.3954C37.6583 19.572 36.8633 19.625 36.086 19.5544C35.3263 19.4837 34.6462 19.2805 34.0455 18.9449C33.4448 18.5915 32.9678 18.0615 32.6145 17.3549C32.2788 16.6482 32.111 15.7472 32.111 14.6519V9.27237H30.2295V6.27787H32.111Z" fill="white"/>
<path d="M6.9165 0.978027C8.89517 0.978027 10.6088 1.36669 12.0575 2.14403C13.5238 2.90369 14.6633 3.98136 15.476 5.37703C16.2887 6.77269 16.695 8.4157 16.695 10.306C16.695 12.1787 16.2887 13.804 15.476 15.182C14.6633 16.56 13.5238 17.6289 12.0575 18.3885C10.6088 19.1482 8.89517 19.528 6.9165 19.528H0V0.978027H6.9165ZM6.8105 16.5335C8.80683 16.5335 10.3438 15.9859 11.4215 14.8905C12.4992 13.7775 13.038 12.2494 13.038 10.306C13.038 8.34503 12.4992 6.79919 11.4215 5.66853C10.3438 4.53786 8.80683 3.97253 6.8105 3.97253H3.5775V16.5335H6.8105Z" fill="white"/>
<path d="M155.454 15.0105C155.56 15.4522 155.736 15.7879 155.984 16.0175C156.249 16.2472 156.54 16.415 156.858 16.521C157.194 16.6094 157.53 16.6535 157.865 16.6535C158.484 16.6535 158.969 16.5387 159.323 16.309C159.676 16.0617 159.853 15.7525 159.853 15.3815C159.853 15.0635 159.729 14.8162 159.482 14.6395C159.234 14.4452 158.916 14.3039 158.528 14.2155C158.139 14.1095 157.742 14.0035 157.335 13.8975C156.858 13.7739 156.346 13.6414 155.798 13.5C155.268 13.341 154.765 13.1202 154.288 12.8375C153.811 12.5549 153.413 12.1927 153.095 11.751C152.777 11.2917 152.618 10.7175 152.618 10.0285C152.618 9.21587 152.839 8.50037 153.281 7.88203C153.74 7.2637 154.367 6.77787 155.162 6.42453C155.975 6.0712 156.911 5.89453 157.971 5.89453C159.226 5.89453 160.286 6.15953 161.151 6.68953C162.017 7.21953 162.644 7.9792 163.033 8.96853L160.038 9.81653C159.95 9.5692 159.8 9.36603 159.588 9.20703C159.376 9.04803 159.12 8.9332 158.819 8.86253C158.537 8.79186 158.245 8.75653 157.945 8.75653C157.432 8.75653 157.008 8.86253 156.673 9.07453C156.337 9.26887 156.169 9.5427 156.169 9.89603C156.169 10.108 156.231 10.2847 156.355 10.426C156.478 10.5497 156.646 10.6557 156.858 10.744C157.088 10.8324 157.344 10.9119 157.627 10.9825C157.927 11.0532 158.254 11.1327 158.607 11.221C159.155 11.3624 159.703 11.5302 160.25 11.7245C160.816 11.9012 161.328 12.1309 161.787 12.4135C162.264 12.6962 162.644 13.076 162.927 13.553C163.209 14.03 163.368 14.6307 163.404 15.355C163.404 16.1324 163.183 16.839 162.741 17.475C162.3 18.0934 161.664 18.588 160.833 18.959C160.003 19.33 158.996 19.5155 157.812 19.5155C156.434 19.5155 155.259 19.224 154.288 18.641C153.334 18.058 152.707 17.1482 152.406 15.9115L155.454 15.0105Z" fill="white"/>
<path d="M133.749 0.25H137.141V19.33H133.749V0.25Z" fill="white"/>
<path d="M125.199 6.08012V2.37012H128.644V6.08012H131.559V9.07462H128.644V14.4541C128.644 15.1431 128.785 15.629 129.068 15.9116C129.368 16.1943 129.739 16.3445 130.181 16.3621C130.64 16.3798 131.1 16.3533 131.559 16.2826V19.1976C130.746 19.3743 129.951 19.4273 129.174 19.3566C128.414 19.286 127.734 19.0828 127.133 18.7471C126.533 18.3938 126.056 17.8638 125.702 17.1571C125.367 16.4505 125.199 15.5495 125.199 14.4541V9.07462H123.317V6.08012H125.199Z" fill="white"/>
<path d="M115.187 3.77477H114.233L108.774 19.3303H105.091L111.742 0.780273H117.652L124.303 19.3303H120.62L115.187 3.77477ZM109.119 12.0693H119.931V15.0638H109.119V12.0693Z" fill="white"/>
<path d="M140.218 7.1879C141.141 6.01153 142.726 5.42334 144.972 5.42334C146.435 5.42334 147.734 5.71335 148.869 6.29337C150.005 6.87338 150.572 7.96807 150.572 9.57741V15.7044C150.572 16.1292 150.581 16.6438 150.597 17.2484C150.621 17.7058 150.691 18.0163 150.805 18.1796C150.92 18.343 151.091 18.4778 151.32 18.584V19.0987H147.521C147.415 18.8291 147.341 18.5759 147.301 18.3389C147.26 18.102 147.227 17.8325 147.203 17.5302C146.721 18.053 146.165 18.4982 145.536 18.8659C144.784 19.2988 143.935 19.5153 142.987 19.5153C141.778 19.5153 140.777 19.1722 139.985 18.486C139.201 17.7916 138.809 16.8113 138.809 15.5451C138.809 13.903 139.442 12.7144 140.708 11.9792C141.402 11.5789 142.423 11.293 143.771 11.1214L144.96 10.9744C145.605 10.8927 146.067 10.7905 146.345 10.668C146.843 10.4556 147.092 10.1248 147.092 9.67544C147.092 9.1281 146.9 8.75232 146.516 8.54808C146.141 8.33568 145.585 8.22948 144.85 8.22948C144.025 8.22948 143.441 8.43371 143.097 8.84218C142.852 9.14444 142.689 9.5529 142.607 10.0676H139.237C139.311 8.89936 139.638 7.93947 140.218 7.1879ZM142.816 16.5744C143.142 16.844 143.543 16.9788 144.017 16.9788C144.768 16.9788 145.458 16.7582 146.087 16.3171C146.725 15.8759 147.055 15.0712 147.08 13.903V12.6041C146.859 12.743 146.635 12.8574 146.406 12.9472C146.185 13.0289 145.879 13.1065 145.487 13.1801L144.703 13.3271C143.967 13.4578 143.441 13.6171 143.122 13.805C142.583 14.1236 142.313 14.6178 142.313 15.2877C142.313 15.8841 142.481 16.313 142.816 16.5744Z" fill="white"/>
<path d="M18.7774 7.1879C19.7005 6.01153 21.2853 5.42334 23.5319 5.42334C24.9942 5.42334 26.2931 5.71335 27.4286 6.29337C28.5641 6.87338 29.1319 7.96807 29.1319 9.57741V15.7044C29.1319 16.1292 29.1401 16.6438 29.1564 17.2484C29.1809 17.7058 29.2504 18.0163 29.3647 18.1796C29.4791 18.343 29.6507 18.4778 29.8794 18.584V19.0987H26.0807C25.9745 18.8291 25.901 18.5759 25.8601 18.3389C25.8193 18.102 25.7866 17.8325 25.7621 17.5302C25.2801 18.053 24.7246 18.4982 24.0956 18.8659C23.344 19.2988 22.4944 19.5153 21.5467 19.5153C20.3377 19.5153 19.337 19.1722 18.5445 18.486C17.7603 17.7916 17.3682 16.8113 17.3682 15.5451C17.3682 13.903 18.0013 12.7144 19.2675 11.9792C19.9619 11.5789 20.9831 11.293 22.331 11.1214L23.5196 10.9744C24.165 10.8927 24.6266 10.7905 24.9043 10.668C25.4026 10.4556 25.6518 10.1248 25.6518 9.67544C25.6518 9.1281 25.4598 8.75232 25.0759 8.54808C24.7001 8.33568 24.1446 8.22948 23.4093 8.22948C22.5842 8.22948 22.0001 8.43371 21.657 8.84218C21.412 9.14444 21.2486 9.5529 21.1669 10.0676H17.7971C17.8706 8.89936 18.1973 7.93947 18.7774 7.1879ZM21.3752 16.5744C21.702 16.844 22.1023 16.9788 22.5761 16.9788C23.3276 16.9788 24.0179 16.7582 24.647 16.3171C25.2842 15.8759 25.615 15.0712 25.6395 13.903V12.6041C25.419 12.743 25.1943 12.8574 24.9656 12.9472C24.745 13.0289 24.4387 13.1065 24.0465 13.1801L23.2623 13.3271C22.5271 13.4578 22.0001 13.6171 21.6815 13.805C21.1424 14.1236 20.8728 14.6178 20.8728 15.2877C20.8728 15.8841 21.0402 16.313 21.3752 16.5744Z" fill="white"/>
<path d="M40.9863 7.1879C41.9095 6.01153 43.4943 5.42334 45.7409 5.42334C47.2032 5.42334 48.5021 5.71335 49.6376 6.29337C50.7731 6.87338 51.3409 7.96807 51.3409 9.57741V15.7044C51.3409 16.1292 51.3491 16.6438 51.3654 17.2484C51.3899 17.7058 51.4593 18.0163 51.5737 18.1796C51.6881 18.343 51.8596 18.4778 52.0884 18.584V19.0987H48.2897C48.1835 18.8291 48.1099 18.5759 48.0691 18.3389C48.0283 18.102 47.9956 17.8325 47.9711 17.5302C47.4891 18.053 46.9336 18.4982 46.3045 18.8659C45.553 19.2988 44.7034 19.5153 43.7557 19.5153C42.5467 19.5153 41.5459 19.1722 40.7535 18.486C39.9693 17.7916 39.5771 16.8113 39.5771 15.5451C39.5771 13.903 40.2103 12.7144 41.4765 11.9792C42.1709 11.5789 43.192 11.293 44.54 11.1214L45.7286 10.9744C46.374 10.8927 46.8355 10.7905 47.1133 10.668C47.6116 10.4556 47.8608 10.1248 47.8608 9.67544C47.8608 9.1281 47.6688 8.75232 47.2849 8.54808C46.9091 8.33568 46.3536 8.22948 45.6183 8.22948C44.7932 8.22948 44.2091 8.43371 43.866 8.84218C43.6209 9.14444 43.4575 9.5529 43.3759 10.0676H40.006C40.0796 8.89936 40.4063 7.93947 40.9863 7.1879ZM43.5842 16.5744C43.9109 16.844 44.3112 16.9788 44.7851 16.9788C45.5366 16.9788 46.2269 16.7582 46.856 16.3171C47.4932 15.8759 47.824 15.0712 47.8485 13.903V12.6041C47.628 12.743 47.4033 12.8574 47.1746 12.9472C46.954 13.0289 46.6476 13.1065 46.2555 13.1801L45.4713 13.3271C44.736 13.4578 44.2091 13.6171 43.8905 13.805C43.3513 14.1236 43.0818 14.6178 43.0818 15.2877C43.0818 15.8841 43.2492 16.313 43.5842 16.5744Z" fill="white"/>
<path d="M87.0283 19.145H83.5568L79.6348 5.89502H83.1328L85.3323 14.852L87.6643 5.89502H91.0563L93.3088 14.852L95.4818 5.89502H98.9533L95.0313 19.145H91.4803L89.2808 10.824L87.0283 19.145Z" fill="white"/>
<path d="M72.7717 19.3305C71.4821 19.3305 70.3337 19.0566 69.3267 18.509C68.3197 17.9436 67.5247 17.1575 66.9417 16.1505C66.3764 15.1258 66.0938 13.9245 66.0938 12.5465C66.0938 11.1508 66.3852 9.94064 66.9682 8.91597C67.5689 7.89131 68.3816 7.10514 69.4062 6.55747C70.4309 5.99214 71.5792 5.70947 72.8512 5.70947C74.1232 5.70947 75.2716 5.99214 76.2962 6.55747C77.3209 7.10514 78.1336 7.89131 78.7342 8.91597C79.3349 9.92297 79.6353 11.1155 79.6353 12.4935C79.6353 13.8891 79.3261 15.0993 78.7078 16.124C78.1071 17.1486 77.2856 17.9436 76.2432 18.509C75.2186 19.0566 74.0614 19.3305 72.7717 19.3305ZM72.7453 16.283C73.2929 16.283 73.8141 16.1505 74.3088 15.8855C74.8034 15.6028 75.2098 15.1876 75.5278 14.64C75.8458 14.0746 76.0047 13.3591 76.0047 12.4935C76.0047 11.6631 75.8546 10.9741 75.5543 10.4265C75.2539 9.86114 74.8564 9.44597 74.3617 9.18097C73.8848 8.89831 73.3636 8.75697 72.7983 8.75697C72.2506 8.75697 71.7382 8.89831 71.2612 9.18097C70.8019 9.44597 70.4309 9.86114 70.1483 10.4265C69.8833 10.9741 69.7507 11.6808 69.7507 12.5465C69.7507 13.3768 69.8833 14.0746 70.1483 14.64C70.4133 15.1876 70.7754 15.6028 71.2348 15.8855C71.6941 16.1505 72.1976 16.283 72.7453 16.283Z" fill="white"/>
<path d="M61.166 0.0649414H64.558V19.1449H61.166V0.0649414Z" fill="white"/>
<path d="M54.1143 4.70273C54.1143 3.5544 54.3174 2.61806 54.7238 1.89373C55.1478 1.1694 55.7661 0.648231 56.5788 0.330231C57.4091 0.0122307 58.4426 -0.0761027 59.6793 0.065231V3.05973C58.9019 2.95373 58.3454 3.05973 58.0098 3.37773C57.6918 3.69573 57.5328 4.1904 57.5328 4.86173V5.89523H59.8383V8.88973H57.5328V19.1452H54.1143V8.88973H52.5508V5.89523H54.1143V4.70273Z" fill="white"/>
</svg>
