<svg width="195" height="20" viewBox="0 0 195 20" fill="none" xmlns="http://www.w3.org/2000/svg">
<path d="M62.8083 6.27787V2.56787H66.2533V6.27787H69.1683V9.27237H66.2533V14.6519C66.2533 15.3409 66.3946 15.8267 66.6773 16.1094C66.9776 16.392 67.3486 16.5422 67.7903 16.5599C68.2496 16.5775 68.7089 16.551 69.1683 16.4804V19.3954C68.3556 19.572 67.5606 19.625 66.7833 19.5544C66.0236 19.4837 65.3434 19.2805 64.7428 18.9449C64.1421 18.5915 63.6651 18.0615 63.3118 17.3549C62.9761 16.6482 62.8083 15.7472 62.8083 14.6519V9.27237H60.9268V6.27787H62.8083Z" fill="white"/>
<path d="M37.6138 0.978027C39.5924 0.978027 41.3061 1.36669 42.7548 2.14403C44.2211 2.90369 45.3606 3.98136 46.1733 5.37703C46.9859 6.77269 47.3923 8.4157 47.3923 10.306C47.3923 12.1787 46.9859 13.804 46.1733 15.182C45.3606 16.56 44.2211 17.6289 42.7548 18.3885C41.3061 19.1482 39.5924 19.528 37.6138 19.528H30.6973V0.978027H37.6138ZM37.5078 16.5335C39.5041 16.5335 41.0411 15.9859 42.1188 14.8905C43.1964 13.7775 43.7353 12.2494 43.7353 10.306C43.7353 8.34503 43.1964 6.79919 42.1188 5.66853C41.0411 4.53786 39.5041 3.97253 37.5078 3.97253H34.2748V16.5335H37.5078Z" fill="white"/>
<path d="M186.151 15.0105C186.257 15.4522 186.434 15.7879 186.681 16.0175C186.946 16.2472 187.238 16.415 187.556 16.521C187.891 16.6094 188.227 16.6535 188.563 16.6535C189.181 16.6535 189.667 16.5387 190.02 16.309C190.373 16.0617 190.55 15.7525 190.55 15.3815C190.55 15.0635 190.426 14.8162 190.179 14.6395C189.932 14.4452 189.614 14.3039 189.225 14.2155C188.836 14.1095 188.439 14.0035 188.033 13.8975C187.556 13.7739 187.043 13.6414 186.496 13.5C185.966 13.341 185.462 13.1202 184.985 12.8375C184.508 12.5549 184.111 12.1927 183.793 11.751C183.475 11.2917 183.316 10.7175 183.316 10.0285C183.316 9.21587 183.536 8.50037 183.978 7.88203C184.437 7.2637 185.065 6.77787 185.86 6.42453C186.672 6.0712 187.609 5.89453 188.669 5.89453C189.923 5.89453 190.983 6.15953 191.849 6.68953C192.714 7.21953 193.341 7.9792 193.73 8.96853L190.736 9.81653C190.647 9.5692 190.497 9.36603 190.285 9.20703C190.073 9.04803 189.817 8.9332 189.517 8.86253C189.234 8.79186 188.942 8.75653 188.642 8.75653C188.13 8.75653 187.706 8.86253 187.37 9.07453C187.034 9.26887 186.867 9.5427 186.867 9.89603C186.867 10.108 186.928 10.2847 187.052 10.426C187.176 10.5497 187.344 10.6557 187.556 10.744C187.785 10.8324 188.041 10.9119 188.324 10.9825C188.624 11.0532 188.951 11.1327 189.305 11.221C189.852 11.3624 190.4 11.5302 190.948 11.7245C191.513 11.9012 192.025 12.1309 192.485 12.4135C192.962 12.6962 193.341 13.076 193.624 13.553C193.907 14.03 194.066 14.6307 194.101 15.355C194.101 16.1324 193.88 16.839 193.439 17.475C192.997 18.0934 192.361 18.588 191.531 18.959C190.7 19.33 189.693 19.5155 188.51 19.5155C187.132 19.5155 185.957 19.224 184.985 18.641C184.031 18.058 183.404 17.1482 183.104 15.9115L186.151 15.0105Z" fill="white"/>
<path d="M164.446 0.25H167.838V19.33H164.446V0.25Z" fill="white"/>
<path d="M155.896 6.08012V2.37012H159.341V6.08012H162.256V9.07462H159.341V14.4541C159.341 15.1431 159.482 15.629 159.765 15.9116C160.065 16.1943 160.436 16.3445 160.878 16.3621C161.337 16.3798 161.797 16.3533 162.256 16.2826V19.1976C161.443 19.3743 160.648 19.4273 159.871 19.3566C159.111 19.286 158.431 19.0828 157.831 18.7471C157.23 18.3938 156.753 17.8638 156.4 17.1571C156.064 16.4505 155.896 15.5495 155.896 14.4541V9.07462H154.015V6.08012H155.896Z" fill="white"/>
<path d="M145.885 3.77477H144.931L139.472 19.3303H135.788L142.44 0.780273H148.349L155.001 19.3303H151.317L145.885 3.77477ZM139.816 12.0693H150.628V15.0638H139.816V12.0693Z" fill="white"/>
<path d="M170.915 7.1879C171.838 6.01153 173.423 5.42334 175.67 5.42334C177.132 5.42334 178.431 5.71335 179.566 6.29337C180.702 6.87338 181.27 7.96807 181.27 9.57741V15.7044C181.27 16.1292 181.278 16.6438 181.294 17.2484C181.319 17.7058 181.388 18.0163 181.502 18.1796C181.617 18.343 181.788 18.4778 182.017 18.584V19.0987H178.218C178.112 18.8291 178.039 18.5759 177.998 18.3389C177.957 18.102 177.924 17.8325 177.9 17.5302C177.418 18.053 176.862 18.4982 176.233 18.8659C175.482 19.2988 174.632 19.5153 173.684 19.5153C172.475 19.5153 171.475 19.1722 170.682 18.486C169.898 17.7916 169.506 16.8113 169.506 15.5451C169.506 13.903 170.139 12.7144 171.405 11.9792C172.1 11.5789 173.121 11.293 174.469 11.1214L175.657 10.9744C176.303 10.8927 176.764 10.7905 177.042 10.668C177.54 10.4556 177.789 10.1248 177.789 9.67544C177.789 9.1281 177.598 8.75232 177.214 8.54808C176.838 8.33568 176.282 8.22948 175.547 8.22948C174.722 8.22948 174.138 8.43371 173.795 8.84218C173.55 9.14444 173.386 9.5529 173.305 10.0676H169.935C170.008 8.89936 170.335 7.93947 170.915 7.1879ZM173.513 16.5744C173.84 16.844 174.24 16.9788 174.714 16.9788C175.465 16.9788 176.156 16.7582 176.785 16.3171C177.422 15.8759 177.753 15.0712 177.777 13.903V12.6041C177.557 12.743 177.332 12.8574 177.103 12.9472C176.883 13.0289 176.576 13.1065 176.184 13.1801L175.4 13.3271C174.665 13.4578 174.138 13.6171 173.819 13.805C173.28 14.1236 173.01 14.6178 173.01 15.2877C173.01 15.8841 173.178 16.313 173.513 16.5744Z" fill="white"/>
<path d="M49.4746 7.1879C50.3978 6.01153 51.9826 5.42334 54.2291 5.42334C55.6914 5.42334 56.9904 5.71335 58.1259 6.29337C59.2614 6.87338 59.8292 7.96807 59.8292 9.57741V15.7044C59.8292 16.1292 59.8373 16.6438 59.8537 17.2484C59.8782 17.7058 59.9476 18.0163 60.062 18.1796C60.1764 18.343 60.3479 18.4778 60.5767 18.584V19.0987H56.778C56.6718 18.8291 56.5982 18.5759 56.5574 18.3389C56.5165 18.102 56.4839 17.8325 56.4593 17.5302C55.9774 18.053 55.4219 18.4982 54.7928 18.8659C54.0412 19.2988 53.1916 19.5153 52.244 19.5153C51.035 19.5153 50.0342 19.1722 49.2418 18.486C48.4576 17.7916 48.0654 16.8113 48.0654 15.5451C48.0654 13.903 48.6985 12.7144 49.9648 11.9792C50.6592 11.5789 51.6803 11.293 53.0283 11.1214L54.2169 10.9744C54.8623 10.8927 55.3238 10.7905 55.6016 10.668C56.0999 10.4556 56.3491 10.1248 56.3491 9.67544C56.3491 9.1281 56.1571 8.75232 55.7731 8.54808C55.3973 8.33568 54.8418 8.22948 54.1066 8.22948C53.2815 8.22948 52.6974 8.43371 52.3543 8.84218C52.1092 9.14444 51.9458 9.5529 51.8641 10.0676H48.4943C48.5678 8.89936 48.8946 7.93947 49.4746 7.1879ZM52.0725 16.5744C52.3992 16.844 52.7995 16.9788 53.2733 16.9788C54.0249 16.9788 54.7152 16.7582 55.3442 16.3171C55.9814 15.8759 56.3123 15.0712 56.3368 13.903V12.6041C56.1162 12.743 55.8916 12.8574 55.6628 12.9472C55.4423 13.0289 55.1359 13.1065 54.7438 13.1801L53.9596 13.3271C53.2243 13.4578 52.6974 13.6171 52.3788 13.805C51.8396 14.1236 51.57 14.6178 51.57 15.2877C51.57 15.8841 51.7375 16.313 52.0725 16.5744Z" fill="white"/>
<path d="M71.6836 7.1879C72.6067 6.01153 74.1916 5.42334 76.4381 5.42334C77.9004 5.42334 79.1993 5.71335 80.3349 6.29337C81.4704 6.87338 82.0382 7.96807 82.0382 9.57741V15.7044C82.0382 16.1292 82.0463 16.6438 82.0627 17.2484C82.0872 17.7058 82.1566 18.0163 82.271 18.1796C82.3854 18.343 82.5569 18.4778 82.7856 18.584V19.0987H78.9869C78.8807 18.8291 78.8072 18.5759 78.7664 18.3389C78.7255 18.102 78.6928 17.8325 78.6683 17.5302C78.1863 18.053 77.6308 18.4982 77.0018 18.8659C76.2502 19.2988 75.4006 19.5153 74.453 19.5153C73.2439 19.5153 72.2432 19.1722 71.4508 18.486C70.6665 17.7916 70.2744 16.8113 70.2744 15.5451C70.2744 13.903 70.9075 12.7144 72.1738 11.9792C72.8682 11.5789 73.8893 11.293 75.2372 11.1214L76.4259 10.9744C77.0712 10.8927 77.5328 10.7905 77.8106 10.668C78.3089 10.4556 78.558 10.1248 78.558 9.67544C78.558 9.1281 78.3661 8.75232 77.9821 8.54808C77.6063 8.33568 77.0508 8.22948 76.3156 8.22948C75.4905 8.22948 74.9064 8.43371 74.5633 8.84218C74.3182 9.14444 74.1548 9.5529 74.0731 10.0676H70.7033C70.7768 8.89936 71.1036 7.93947 71.6836 7.1879ZM74.2814 16.5744C74.6082 16.844 75.0085 16.9788 75.4823 16.9788C76.2339 16.9788 76.9242 16.7582 77.5532 16.3171C78.1904 15.8759 78.5213 15.0712 78.5458 13.903V12.6041C78.3252 12.743 78.1006 12.8574 77.8718 12.9472C77.6513 13.0289 77.3449 13.1065 76.9528 13.1801L76.1685 13.3271C75.4333 13.4578 74.9064 13.6171 74.5878 13.805C74.0486 14.1236 73.779 14.6178 73.779 15.2877C73.779 15.8841 73.9465 16.313 74.2814 16.5744Z" fill="white"/>
<path d="M117.726 19.145H114.254L110.332 5.89502H113.83L116.03 14.852L118.362 5.89502H121.754L124.006 14.852L126.179 5.89502H129.651L125.729 19.145H122.178L119.978 10.824L117.726 19.145Z" fill="white"/>
<path d="M103.469 19.3305C102.179 19.3305 101.031 19.0566 100.024 18.509C99.017 17.9436 98.222 17.1575 97.639 16.1505C97.0737 15.1258 96.791 13.9245 96.791 12.5465C96.791 11.1508 97.0825 9.94064 97.6655 8.91597C98.2662 7.89131 99.0788 7.10514 100.104 6.55747C101.128 5.99214 102.277 5.70947 103.549 5.70947C104.821 5.70947 105.969 5.99214 106.994 6.55747C108.018 7.10514 108.831 7.89131 109.432 8.91597C110.032 9.92297 110.333 11.1155 110.333 12.4935C110.333 13.8891 110.023 15.0993 109.405 16.124C108.804 17.1486 107.983 17.9436 106.941 18.509C105.916 19.0566 104.759 19.3305 103.469 19.3305ZM103.443 16.283C103.99 16.283 104.511 16.1505 105.006 15.8855C105.501 15.6028 105.907 15.1876 106.225 14.64C106.543 14.0746 106.702 13.3591 106.702 12.4935C106.702 11.6631 106.552 10.9741 106.252 10.4265C105.951 9.86114 105.554 9.44597 105.059 9.18097C104.582 8.89831 104.061 8.75697 103.496 8.75697C102.948 8.75697 102.436 8.89831 101.959 9.18097C101.499 9.44597 101.128 9.86114 100.846 10.4265C100.581 10.9741 100.448 11.6808 100.448 12.5465C100.448 13.3768 100.581 14.0746 100.846 14.64C101.111 15.1876 101.473 15.6028 101.932 15.8855C102.391 16.1505 102.895 16.283 103.443 16.283Z" fill="white"/>
<path d="M91.8633 0.0649414H95.2553V19.1449H91.8633V0.0649414Z" fill="white"/>
<path d="M84.8115 4.70273C84.8115 3.5544 85.0147 2.61806 85.421 1.89373C85.845 1.1694 86.4634 0.648231 87.276 0.330231C88.1064 0.0122307 89.1399 -0.0761027 90.3765 0.065231V3.05973C89.5992 2.95373 89.0427 3.05973 88.707 3.37773C88.389 3.69573 88.23 4.1904 88.23 4.86173V5.89523H90.5355V8.88973H88.23V19.1452H84.8115V8.88973H83.248V5.89523H84.8115V4.70273Z" fill="white"/>
<rect y="0.780273" width="19.0869" height="18.7349" fill="white"/>
</svg>
