<svg width="53" height="38" viewBox="0 0 53 38" fill="none" xmlns="http://www.w3.org/2000/svg">
<path d="M33.3643 4H4V33.9844H33.3643V37.9844H0V0H33.3643V4Z" fill="white"/>
<path d="M33.3643 0.0532227C43.8376 0.0533533 52.3281 8.54367 52.3281 19.0171C52.328 29.4904 43.8376 37.9808 33.3643 37.981C22.8908 37.981 14.4005 29.4905 14.4004 19.0171C14.4004 8.54359 22.8908 0.0532227 33.3643 0.0532227ZM17.7256 20.6382C18.4104 27.3228 23.2836 32.7658 29.6777 34.3022C26.924 30.2551 25.2657 25.5462 24.8857 20.6382H17.7256ZM41.8418 20.6382C41.4618 25.5465 39.8028 30.2549 37.0488 34.3022C43.4436 32.7662 48.317 27.3232 49.002 20.6382H41.8418ZM28.1377 20.6382C28.5597 25.4575 30.3777 30.0487 33.3643 33.8511C36.3507 30.0488 38.1678 25.4574 38.5898 20.6382H28.1377ZM37.0488 3.73096C39.8029 7.77821 41.4617 12.4868 41.8418 17.395H49.002C48.3168 10.7101 43.4435 5.26689 37.0488 3.73096ZM33.3643 4.18213C30.3777 7.9844 28.5598 12.5757 28.1377 17.395H38.5898C38.1677 12.5759 36.3507 7.98434 33.3643 4.18213ZM29.6777 3.73096C23.2837 5.26735 18.4106 10.7106 17.7256 17.395H24.8857C25.2658 12.487 26.924 7.77807 29.6777 3.73096Z" fill="white"/>
</svg>
