<svg width="213" height="48" viewBox="0 0 213 48" fill="none" xmlns="http://www.w3.org/2000/svg">
<path d="M188.26 30.3704C188.366 30.8121 188.543 31.1477 188.79 31.3774C189.055 31.6071 189.347 31.7749 189.665 31.8809C190.001 31.9692 190.336 32.0134 190.672 32.0134C191.29 32.0134 191.776 31.8986 192.129 31.6689C192.483 31.4216 192.659 31.1124 192.659 30.7414C192.659 30.4234 192.536 30.1761 192.288 29.9994C192.041 29.8051 191.723 29.6637 191.334 29.5754C190.946 29.4694 190.548 29.3634 190.142 29.2574C189.665 29.1337 189.153 29.0012 188.605 28.8599C188.075 28.7009 187.571 28.4801 187.094 28.1974C186.617 27.9147 186.22 27.5526 185.902 27.1109C185.584 26.6516 185.425 26.0774 185.425 25.3884C185.425 24.5757 185.646 23.8602 186.087 23.2419C186.547 22.6236 187.174 22.1377 187.969 21.7844C188.782 21.4311 189.718 21.2544 190.778 21.2544C192.032 21.2544 193.092 21.5194 193.958 22.0494C194.824 22.5794 195.451 23.3391 195.839 24.3284L192.845 25.1764C192.757 24.9291 192.606 24.7259 192.394 24.5669C192.182 24.4079 191.926 24.2931 191.626 24.2224C191.343 24.1517 191.052 24.1164 190.751 24.1164C190.239 24.1164 189.815 24.2224 189.479 24.4344C189.144 24.6287 188.976 24.9026 188.976 25.2559C188.976 25.4679 189.038 25.6446 189.161 25.7859C189.285 25.9096 189.453 26.0156 189.665 26.1039C189.895 26.1922 190.151 26.2717 190.433 26.3424C190.734 26.4131 191.061 26.4926 191.414 26.5809C191.962 26.7222 192.509 26.8901 193.057 27.0844C193.622 27.2611 194.135 27.4907 194.594 27.7734C195.071 28.0561 195.451 28.4359 195.733 28.9129C196.016 29.3899 196.175 29.9906 196.21 30.7149C196.21 31.4922 195.99 32.1989 195.548 32.8349C195.106 33.4532 194.47 33.9479 193.64 34.3189C192.81 34.6899 191.803 34.8754 190.619 34.8754C189.241 34.8754 188.066 34.5839 187.094 34.0009C186.14 33.4179 185.513 32.5081 185.213 31.2714L188.26 30.3704Z" fill="white"/>
<path d="M180.699 34.6899L180.434 33.0734C179.993 33.6211 179.489 34.0539 178.924 34.3719C178.376 34.6899 177.634 34.8489 176.698 34.8489C175.815 34.8489 175.037 34.6987 174.366 34.3984C173.712 34.0804 173.2 33.6476 172.829 33.0999C172.458 32.5346 172.272 31.8721 172.272 31.1124C172.272 29.9994 172.67 29.0807 173.465 28.3564C174.278 27.6144 175.497 27.1462 177.122 26.9519L180.434 26.5809V25.6534C180.434 25.2824 180.267 24.9379 179.931 24.6199C179.595 24.3019 179.065 24.1429 178.341 24.1429C177.705 24.1429 177.148 24.3019 176.671 24.6199C176.212 24.9202 175.903 25.3796 175.744 25.9979L172.829 24.9379C173.182 23.7542 173.854 22.8444 174.843 22.2084C175.832 21.5724 177.051 21.2544 178.5 21.2544C180.267 21.2544 181.592 21.6961 182.475 22.5794C183.376 23.4451 183.826 24.5934 183.826 26.0244V34.6899H180.699ZM180.434 28.9394L177.572 29.3104C176.989 29.3811 176.548 29.5577 176.247 29.8404C175.947 30.1054 175.797 30.4322 175.797 30.8209C175.797 31.1919 175.947 31.5099 176.247 31.7749C176.548 32.0222 176.972 32.1459 177.519 32.1459C178.138 32.1459 178.659 32.0311 179.083 31.8014C179.525 31.5717 179.86 31.2361 180.09 30.7944C180.32 30.3527 180.434 29.8051 180.434 29.1514V28.9394Z" fill="white"/>
<path d="M167.318 15.6099H170.71V34.6899H167.318V15.6099Z" fill="white"/>
<path d="M159.601 21.44V17.73H163.046V21.44H165.961V24.4345H163.046V29.814C163.046 30.503 163.188 30.9888 163.47 31.2715C163.771 31.5541 164.142 31.7043 164.583 31.722C165.043 31.7396 165.502 31.7131 165.961 31.6425V34.5575C165.149 34.7341 164.354 34.7871 163.576 34.7165C162.817 34.6458 162.136 34.4426 161.536 34.107C160.935 33.7536 160.458 33.2236 160.105 32.517C159.769 31.8103 159.601 30.9093 159.601 29.814V24.4345H157.72V21.44H159.601Z" fill="white"/>
<path d="M148.757 19.1346H147.803L142.344 34.6901H138.66L145.312 16.1401H151.221L157.873 34.6901H154.189L148.757 19.1346ZM142.688 27.4291H153.5V30.4236H142.688V27.4291Z" fill="white"/>
<path d="M111.415 21.4399H114.489L114.728 22.7384C115.152 22.2967 115.655 21.9434 116.238 21.6784C116.839 21.3957 117.492 21.2544 118.199 21.2544C119.047 21.2544 119.824 21.4399 120.531 21.8109C121.238 22.1642 121.803 22.6766 122.227 23.3479C122.704 22.6942 123.322 22.1819 124.082 21.8109C124.859 21.4399 125.699 21.2544 126.6 21.2544C127.642 21.2544 128.543 21.4752 129.303 21.9169C130.08 22.3586 130.681 23.0034 131.105 23.8514C131.529 24.6817 131.741 25.7152 131.741 26.9519V34.6899H128.349V27.4024C128.349 26.3954 128.128 25.6357 127.686 25.1234C127.244 24.6111 126.617 24.3549 125.805 24.3549C124.974 24.3549 124.321 24.6199 123.844 25.1499C123.384 25.6799 123.155 26.4484 123.155 27.4554V34.6899H119.763V27.4024C119.763 26.3954 119.559 25.6357 119.153 25.1234C118.764 24.6111 118.164 24.3549 117.351 24.3549C116.521 24.3549 115.885 24.6199 115.443 25.1499C115.019 25.6622 114.807 26.4219 114.807 27.4289V34.6899H111.415V21.4399Z" fill="white"/>
<path d="M103.662 34.8754C102.337 34.8754 101.171 34.5839 100.164 34.0009C99.1574 33.4179 98.3712 32.6052 97.8059 31.5629C97.2582 30.5206 96.9844 29.3192 96.9844 27.9589C96.9844 26.6516 97.2582 25.4944 97.8059 24.4874C98.3535 23.4804 99.1132 22.6942 100.085 22.1289C101.074 21.5459 102.196 21.2544 103.45 21.2544C104.722 21.2544 105.844 21.5282 106.816 22.0759C107.788 22.6236 108.538 23.3921 109.068 24.3814C109.616 25.3531 109.89 26.4926 109.89 27.7999C109.89 27.9942 109.872 28.2151 109.837 28.4624C109.819 28.6921 109.793 28.9394 109.757 29.2044H100.641C100.712 29.7697 100.889 30.2556 101.171 30.6619C101.472 31.0506 101.834 31.3597 102.258 31.5894C102.7 31.8014 103.194 31.9074 103.742 31.9074C104.396 31.9074 104.979 31.7749 105.491 31.5099C106.021 31.2272 106.401 30.8651 106.63 30.4234L109.651 31.3244C109.121 32.4551 108.326 33.3296 107.266 33.9479C106.224 34.5662 105.023 34.8754 103.662 34.8754ZM106.18 26.7399C106.162 26.2452 106.03 25.8036 105.782 25.4149C105.535 25.0086 105.208 24.6994 104.802 24.4874C104.396 24.2577 103.945 24.1429 103.45 24.1429C103.009 24.1429 102.594 24.2577 102.205 24.4874C101.816 24.7171 101.481 25.0262 101.198 25.4149C100.933 25.7859 100.756 26.2276 100.668 26.7399H106.18Z" fill="white"/>
<path d="M89.9303 21.44V17.73H93.3753V21.44H96.2903V24.4345H93.3753V29.814C93.3753 30.503 93.5167 30.9888 93.7993 31.2715C94.0997 31.5541 94.4707 31.7043 94.9123 31.722C95.3717 31.7396 95.831 31.7131 96.2903 31.6425V34.5575C95.4777 34.7341 94.6827 34.7871 93.9053 34.7165C93.1457 34.6458 92.4655 34.4426 91.8648 34.107C91.2642 33.7536 90.7872 33.2236 90.4338 32.517C90.0982 31.8103 89.9303 30.9093 89.9303 29.814V24.4345H88.0488V21.44H89.9303Z" fill="white"/>
<path d="M79.4821 30.3704C79.5881 30.8121 79.7647 31.1477 80.0121 31.3774C80.2771 31.6071 80.5686 31.7749 80.8866 31.8809C81.2222 31.9692 81.5579 32.0134 81.8936 32.0134C82.5119 32.0134 82.9977 31.8986 83.3511 31.6689C83.7044 31.4216 83.8811 31.1124 83.8811 30.7414C83.8811 30.4234 83.7574 30.1761 83.5101 29.9994C83.2627 29.8051 82.9447 29.6637 82.5561 29.5754C82.1674 29.4694 81.7699 29.3634 81.3636 29.2574C80.8866 29.1337 80.3742 29.0012 79.8266 28.8599C79.2966 28.7009 78.7931 28.4801 78.3161 28.1974C77.8391 27.9147 77.4416 27.5526 77.1236 27.1109C76.8056 26.6516 76.6466 26.0774 76.6466 25.3884C76.6466 24.5757 76.8674 23.8602 77.3091 23.2419C77.7684 22.6236 78.3956 22.1377 79.1906 21.7844C80.0032 21.4311 80.9396 21.2544 81.9996 21.2544C83.2539 21.2544 84.3139 21.5194 85.1796 22.0494C86.0452 22.5794 86.6724 23.3391 87.0611 24.3284L84.0666 25.1764C83.9782 24.9291 83.8281 24.7259 83.6161 24.5669C83.4041 24.4079 83.1479 24.2931 82.8476 24.2224C82.5649 24.1517 82.2734 24.1164 81.9731 24.1164C81.4607 24.1164 81.0367 24.2224 80.7011 24.4344C80.3654 24.6287 80.1976 24.9026 80.1976 25.2559C80.1976 25.4679 80.2594 25.6446 80.3831 25.7859C80.5067 25.9096 80.6746 26.0156 80.8866 26.1039C81.1162 26.1922 81.3724 26.2717 81.6551 26.3424C81.9554 26.4131 82.2822 26.4926 82.6356 26.5809C83.1832 26.7222 83.7309 26.8901 84.2786 27.0844C84.8439 27.2611 85.3562 27.4907 85.8156 27.7734C86.2926 28.0561 86.6724 28.4359 86.9551 28.9129C87.2377 29.3899 87.3967 29.9906 87.4321 30.7149C87.4321 31.4922 87.2112 32.1989 86.7696 32.8349C86.3279 33.4532 85.6919 33.9479 84.8616 34.3189C84.0312 34.6899 83.0242 34.8754 81.8406 34.8754C80.4626 34.8754 79.2877 34.5839 78.3161 34.0009C77.3621 33.4179 76.7349 32.5081 76.4346 31.2714L79.4821 30.3704Z" fill="white"/>
<path d="M72.4952 21.4399H76.1257L68.3082 39.9899H64.8897L67.3807 34.2129L62.1602 21.4399H65.9497L69.1827 30.1584L72.4952 21.4399Z" fill="white"/>
<path d="M51.5391 29.4431C51.6274 29.9378 51.8217 30.3706 52.1221 30.7416C52.4224 31.1126 52.8111 31.4041 53.2881 31.6161C53.7827 31.8104 54.3569 31.9076 55.0106 31.9076C56.0352 31.9076 56.8037 31.6779 57.3161 31.2186C57.8284 30.7416 58.0846 30.1674 58.0846 29.4961C58.0846 28.9661 57.9256 28.5244 57.6076 28.1711C57.2896 27.8178 56.8391 27.5174 56.2561 27.2701C55.6907 27.0228 55.0282 26.7843 54.2686 26.5546C53.5619 26.3426 52.8641 26.1129 52.1751 25.8656C51.4861 25.6183 50.8589 25.3091 50.2936 24.9381C49.7282 24.5671 49.2777 24.0901 48.9421 23.5071C48.6241 22.9064 48.4651 22.1556 48.4651 21.2546C48.4651 20.1239 48.7389 19.1611 49.2866 18.3661C49.8519 17.5711 50.6204 16.9704 51.5921 16.5641C52.5637 16.1578 53.6856 15.9546 54.9576 15.9546C56.0352 15.9546 57.0069 16.1136 57.8726 16.4316C58.7382 16.7319 59.4626 17.1824 60.0456 17.7831C60.6462 18.3661 61.0879 19.0904 61.3706 19.9561L58.0581 20.8571C57.9697 20.4684 57.7754 20.1328 57.4751 19.8501C57.1747 19.5674 56.8126 19.3466 56.3886 19.1876C55.9646 19.0109 55.5052 18.9226 55.0106 18.9226C54.4806 18.9049 53.9947 18.9844 53.5531 19.1611C53.1114 19.3378 52.7581 19.5939 52.4931 19.9296C52.2281 20.2653 52.0956 20.6539 52.0956 21.0956C52.0956 21.5903 52.2457 21.9878 52.5461 22.2881C52.8464 22.5708 53.2439 22.8181 53.7386 23.0301C54.2332 23.2244 54.7897 23.4188 55.4081 23.6131C56.1501 23.8251 56.8921 24.0724 57.6341 24.3551C58.3761 24.6201 59.0562 24.9646 59.6746 25.3886C60.2929 25.7949 60.7876 26.3161 61.1586 26.9521C61.5472 27.5881 61.7416 28.3919 61.7416 29.3636C61.7416 30.3883 61.4942 31.3158 60.9996 32.1461C60.5226 32.9764 59.7982 33.6389 58.8266 34.1336C57.8549 34.6283 56.6359 34.8756 55.1696 34.8756C53.9682 34.8756 52.8729 34.6989 51.8836 34.3456C50.9119 33.9923 50.1081 33.4799 49.4721 32.8086C48.8361 32.1196 48.4209 31.3069 48.2266 30.3706L51.5391 29.4431Z" fill="white"/>
<g opacity="0.2">
<path d="M4.8636 21.0346C4.01038 21.8683 3.74495 23.1652 4.30221 24.22C4.96942 25.483 5.84336 27.1702 6.46254 28.4874C9.73664 35.4523 12.9514 47.0955 12.9514 47.0955C13.5981 37.0199 19.9507 30.1709 22.8897 27.5163C23.732 26.7555 24.0724 25.5465 23.6514 24.4924L17.738 9.68476C16.9082 7.60682 13.8978 7.58132 12.8806 9.57426C10.4297 14.3765 7.63688 18.3244 4.8636 21.0346Z" fill="white"/>
<path d="M21.3104 10.8565C21.0964 10.3321 20.883 10.1499 21.193 9.67596C21.9515 8.51659 23.9582 8.27702 24.4758 9.56208L31.5657 27.1619C32.123 28.5452 31.3517 30.1383 29.9766 30.7157C25.724 32.5012 17.3848 37.1189 12.9514 47.0955C12.9514 47.0955 15.7978 35.2296 26.1615 28.6998C27.2473 28.0157 27.7594 26.6634 27.2746 25.4752L21.3104 10.8565Z" fill="white"/>
<path d="M33.6934 32.5737C35.0817 32.1177 35.8239 30.5929 35.2779 29.2374L28.6134 12.6913C28.4206 12.2127 28.2482 12.0015 28.5473 11.5809C29.2249 10.6278 30.8858 10.4659 31.332 11.5469L39.691 31.7939C40.2785 33.2169 39.4219 34.6949 37.9146 35.008C33.0275 36.0232 22.7291 38.9896 12.9514 47.0955C20.1442 38.2255 26.6954 34.8726 33.6934 32.5737Z" fill="white"/>
</g>
<path opacity="0.2" d="M203.854 14.9531H206.831V15.8659H205.93V18.9465H204.766V15.8659H203.854V14.9531ZM207.47 14.9531H209.011L210.243 18.2505L209.707 18.2619L211.064 14.9531H212.502V18.9465H211.43V15.6605L211.738 15.6263L210.357 18.9465H209.558L208.235 15.6263L208.509 15.6605V18.9465H207.47V14.9531Z" fill="white"/>
</svg>
